# xmcd CD database file
#
# Track frame offsets:
#	150
#	22333
#	40732
#	63787
#	83101
#	101497
#	116636
#	133299
#	151035
#	166239
#	182043
#	200719
#	222887
#	241334
#	257949
#	279348
#	295632
#	311931
#
# Disc length: 4406 seconds
#
# Revision: 1
# Processed by: cddbd v1.5.2PL0 Copyright (c) Steve Scherf et al.
# Submitted via: CDex 1.51
#
DISCID=06113412
DTITLE=Various Artist - SF345
DYEAR=1900
DGENRE=Blues
TTITLE0=Ed Sheeran - Thinking Out Loud
TTITLE1=One Direction - Steal My Girl
TTITLE2=Foo Fighters - Something From Nothing
TTITLE3=Cheryl - I Don't Care
TTITLE4=Take That - These Days
TTITLE5=James Blunt - When I Find Love Again
TTITLE6=5 Seconds Of Summer - Good Girls
TTITLE7=Jessie J Ft 2 Chains - Burnin' Up
TTITLE8=Olly Murs Ft Travie McCoy - Wrapped Up
TTITLE9=George Ezra - Blame It On Me
TTITLE10=Kendrick Lamar - I
TTITLE11=Avicci Ft Robbie Williams - The Days
TTITLE12=Fall Out Boy - Centuries 
TTITLE13=David Guetta Ft Sam Martin - Dangerous
TTITLE14=Jeremih Ft YG - Don't Tell Em
TTITLE15=Krishane Ft Melissa Steel - Drunk And Incapable
TTITLE16=Fuse ODG Ft Angel - T.I.N.A
TTITLE17=Veronicas The - You Ruin Me
EXTD=
EXTT0=
EXTT1=
EXTT2=
EXTT3=
EXTT4=
EXTT5=
EXTT6=
EXTT7=
EXTT8=
EXTT9=
EXTT10=
EXTT11=
EXTT12=
EXTT13=
EXTT14=
EXTT15=
EXTT16=
EXTT17=
PLAYORDER=
